<?xml version="1.0" standalone="no"?>
<!DOCTYPE svg PUBLIC "-//W3C//DTD SVG 20010904//EN"
 "http://www.w3.org/TR/2001/REC-SVG-20010904/DTD/svg10.dtd">
<svg version="1.0" xmlns="http://www.w3.org/2000/svg"
 width="1280.000000pt" height="1280.000000pt" viewBox="0 0 1280.000000 1280.000000"
 preserveAspectRatio="xMidYMid meet">
<metadata>
Created by potrace 1.16, written by Peter Selinger 2001-2019
</metadata>
<g transform="translate(0.000000,1280.000000) scale(0.100000,-0.100000)"
fill="#000000" stroke="none">
<path d="M5146 8939 c-15 -11 -137 -141 -272 -287 l-246 -265 272 -271 272
-271 259 265 c142 146 259 270 259 275 0 8 -428 485 -504 563 -10 10 -18 9
-40 -9z"/>
<path d="M7746 8703 l7 -207 -39 24 c-21 13 -90 57 -152 97 -62 40 -118 73
-125 73 -14 0 -47 -60 -47 -85 0 -8 81 -69 180 -135 l180 -120 0 -289 0 -290
-192 111 c-106 61 -218 127 -248 147 -63 41 -58 20 -80 311 -6 85 -13 156 -15
159 -5 4 -108 22 -111 18 -1 -1 3 -84 9 -184 6 -100 8 -185 5 -189 -4 -3 -79
37 -167 90 -88 53 -165 97 -171 98 -6 2 -26 -22 -44 -52 l-35 -54 181 -102
181 -102 -172 -86 -172 -87 19 -27 c51 -71 38 -73 254 34 l195 97 220 -128
c121 -71 231 -136 243 -145 22 -17 22 -17 -56 -67 -85 -53 -372 -219 -398
-229 -10 -4 -93 31 -205 86 -124 60 -196 90 -208 86 -11 -3 -29 -23 -41 -44
l-21 -37 171 -86 170 -85 -176 -99 c-97 -55 -176 -103 -176 -109 0 -5 14 -31
31 -57 l31 -49 40 21 c40 20 239 137 287 168 l24 15 -7 -139 c-3 -77 -9 -164
-13 -194 l-6 -53 54 7 c30 4 57 10 61 14 4 3 14 101 23 216 10 133 20 214 28
221 22 20 471 284 483 284 2 0 4 -129 4 -287 l0 -288 -181 -119 c-99 -66 -182
-122 -184 -126 -5 -9 37 -100 47 -100 5 0 55 30 111 67 56 36 126 82 156 101
l54 35 -7 -207 -6 -206 70 0 70 0 0 205 0 205 158 -105 157 -105 23 52 24 53
-29 22 c-15 13 -96 69 -180 126 l-152 102 -1 288 0 288 58 -32 c379 -216 426
-246 433 -275 4 -16 13 -116 19 -222 8 -123 17 -195 24 -197 6 -2 33 -6 60
-10 l49 -7 -7 124 c-4 68 -9 154 -13 191 l-6 68 154 -89 c85 -49 164 -94 176
-101 20 -10 25 -7 58 41 27 41 32 55 22 64 -6 6 -82 50 -167 98 -85 49 -159
91 -163 96 -5 4 64 44 152 89 89 45 161 87 161 94 0 13 -47 87 -55 87 -3 0
-81 -37 -173 -83 -92 -46 -181 -89 -199 -96 -30 -12 -37 -9 -278 129 -135 78
-245 143 -243 145 2 1 113 66 247 145 l243 142 202 -97 201 -96 28 33 c15 18
27 40 27 50 0 12 -45 40 -161 99 l-162 82 39 24 c21 13 96 55 166 95 70 39
130 77 133 86 5 14 -36 95 -54 106 -4 3 -83 -40 -175 -96 -91 -55 -169 -98
-172 -95 -3 3 -1 71 5 150 6 80 11 164 11 186 l0 40 -37 -5 c-87 -12 -77 11
-95 -228 -9 -119 -19 -220 -22 -225 -7 -10 -468 -281 -480 -281 -3 0 -6 129
-6 288 l0 287 175 115 c189 124 192 128 160 190 -9 17 -20 30 -26 30 -6 0 -76
-43 -157 -95 l-147 -95 -3 205 -2 205 -70 0 -70 0 6 -207z"/>
<path d="M5605 7950 l-268 -268 22 -29 c12 -15 135 -141 272 -279 l249 -250
289 277 288 277 -246 229 c-135 126 -267 248 -292 271 l-45 41 -269 -269z"/>
<path d="M4178 7961 c-145 -136 -271 -257 -280 -268 -17 -19 -14 -23 104 -134
67 -63 196 -183 287 -267 l166 -152 267 267 268 268 -267 267 c-148 148 -271
268 -275 268 -4 0 -126 -112 -270 -249z"/>
<path d="M4896 7238 c-169 -173 -262 -276 -258 -284 10 -18 432 -481 487 -534
l46 -45 52 57 c29 31 147 159 262 283 116 125 211 232 213 239 3 14 -393 432
-481 508 l-55 48 -266 -272z"/>
<path d="M6790 5131 c-5 -11 -10 -26 -10 -34 0 -8 -9 -26 -21 -41 -30 -38 -71
-34 -206 20 -148 58 -239 72 -365 56 -125 -15 -201 -53 -294 -146 -227 -227
-193 -545 81 -745 73 -54 141 -94 320 -189 236 -125 291 -167 339 -260 20 -40
24 -142 6 -187 -15 -40 -85 -112 -135 -138 -61 -32 -211 -36 -302 -8 -179 54
-340 232 -398 436 -18 62 -39 95 -52 81 -10 -10 -17 -523 -8 -593 4 -29 11
-53 16 -53 5 0 31 23 59 51 l49 52 58 -6 c32 -3 101 -19 153 -37 214 -71 436
-62 588 26 59 35 164 135 200 192 56 87 75 163 70 279 -4 96 -7 108 -46 187
-34 67 -57 98 -116 153 -82 76 -144 115 -391 246 -309 164 -365 217 -365 347
0 69 19 108 74 157 60 53 111 66 228 61 122 -5 203 -43 298 -138 78 -77 114
-137 150 -245 21 -63 31 -80 46 -80 18 0 19 10 16 260 -2 143 -6 272 -8 288
-6 32 -19 35 -34 8z"/>
<path d="M8814 5142 c-6 -4 -18 -21 -27 -39 -9 -17 -29 -41 -44 -53 -37 -29
-79 -24 -259 34 l-142 46 -208 0 c-181 0 -220 -3 -284 -21 -151 -41 -292 -122
-409 -233 -363 -347 -370 -947 -13 -1277 113 -105 300 -207 429 -234 96 -21
483 -20 590 0 106 20 243 60 331 97 l72 30 0 226 c0 196 2 232 18 261 23 47
58 70 120 80 60 9 71 16 53 34 -9 9 -103 13 -369 15 -377 4 -462 -1 -462 -23
0 -17 23 -25 71 -25 50 0 97 -20 129 -55 l25 -27 3 -247 4 -248 -64 -18 c-37
-11 -112 -20 -184 -23 -105 -4 -132 -2 -192 17 -82 25 -179 86 -226 144 -188
232 -212 857 -46 1177 51 97 131 175 228 221 60 30 78 33 181 37 134 5 198 -6
296 -53 142 -69 241 -170 321 -330 48 -95 69 -124 81 -111 10 9 17 505 8 564
-6 42 -11 48 -31 34z"/>
<path d="M3783 5104 c-32 -7 -29 -32 5 -39 90 -19 108 -28 170 -93 l63 -67 -3
-670 -3 -671 -25 -48 c-29 -56 -74 -85 -142 -93 -71 -7 -88 -13 -88 -27 0 -22
49 -26 305 -26 254 0 305 4 305 25 0 17 -23 25 -69 25 -52 0 -131 42 -161 87
l-25 37 -3 614 c-3 445 -1 612 7 607 6 -3 125 -147 263 -318 853 -1057 907
-1122 922 -1107 8 8 13 259 16 810 5 791 5 799 26 827 29 40 78 70 123 78 45
7 80 29 68 42 -10 10 -465 17 -524 8 -70 -10 -52 -45 22 -45 45 0 84 -16 118
-48 63 -59 62 -52 65 -462 2 -206 2 -406 0 -445 l-3 -69 -419 529 c-231 292
-420 531 -421 532 -3 5 -572 11 -592 7z"/>
</g>
</svg>
