<?xml version="1.0" standalone="no"?>
<!DOCTYPE svg PUBLIC "-//W3C//DTD SVG 20010904//EN"
 "http://www.w3.org/TR/2001/REC-SVG-20010904/DTD/svg10.dtd">
<svg version="1.0" xmlns="http://www.w3.org/2000/svg"
 width="1280.000000pt" height="1280.000000pt" viewBox="0 0 1280.000000 1280.000000"
 preserveAspectRatio="xMidYMid meet">
<metadata>
Created by potrace 1.16, written by Peter Selinger 2001-2019
</metadata>
<g transform="translate(0.000000,1280.000000) scale(0.100000,-0.100000)"
fill="#000000" stroke="none">
<path d="M4915 8704 c-137 -148 -258 -279 -269 -292 l-20 -23 269 -269 269
-269 260 266 c144 146 261 269 261 273 0 4 -112 130 -250 280 -137 151 -255
280 -261 288 -8 12 -59 -38 -259 -254z"/>
<path d="M7745 8705 c4 -113 5 -205 1 -205 -4 0 -73 43 -154 96 -81 53 -152
99 -159 101 -12 5 -56 -84 -48 -97 3 -4 86 -61 185 -126 l180 -118 0 -294 0
-294 -22 14 c-13 8 -128 75 -255 148 -222 128 -233 136 -233 165 -1 56 -27
406 -31 409 -2 2 -28 6 -58 10 l-53 7 6 -73 c3 -40 9 -128 12 -196 l7 -123
-177 107 c-97 59 -178 105 -179 103 -2 -2 -18 -27 -35 -56 l-31 -52 52 -29
c29 -16 110 -62 181 -102 l129 -73 -169 -85 c-93 -46 -170 -86 -172 -87 -7 -6
54 -84 66 -85 7 0 98 43 203 96 l191 95 236 -137 c131 -75 242 -142 249 -148
9 -8 -48 -46 -232 -154 -135 -78 -250 -142 -255 -142 -6 0 -96 43 -201 96
-210 105 -202 103 -242 35 l-18 -30 172 -87 172 -86 -109 -60 c-60 -34 -141
-80 -181 -102 l-71 -41 31 -53 c18 -28 35 -52 39 -52 7 0 159 88 317 183 l34
20 -7 -129 c-4 -71 -9 -158 -13 -193 l-6 -64 53 6 c29 4 55 9 58 12 3 3 12 98
19 213 7 114 15 212 17 218 4 10 486 294 500 294 3 0 6 -130 6 -290 l0 -289
-185 -122 c-102 -67 -185 -124 -184 -128 0 -3 10 -27 22 -53 l22 -47 145 95
c80 52 153 100 164 106 18 10 18 4 11 -196 l-7 -206 68 0 69 0 -3 205 -3 206
43 -27 c24 -15 96 -62 160 -106 l117 -78 21 46 c11 26 20 50 20 55 0 5 -81 63
-180 129 l-180 120 0 290 c0 160 2 290 4 290 4 0 486 -278 494 -285 2 -2 10
-101 18 -221 8 -120 16 -219 17 -221 2 -1 28 -5 58 -9 l54 -6 -12 188 c-6 104
-11 190 -9 191 1 1 78 -43 171 -97 93 -55 173 -100 176 -100 7 0 69 95 69 104
0 2 -79 48 -175 101 -96 54 -175 100 -175 104 0 4 72 42 161 86 88 44 163 83
165 88 6 8 -47 86 -59 87 -4 0 -93 -43 -197 -95 -104 -52 -194 -95 -199 -95
-4 0 -119 65 -255 144 l-247 144 93 55 c51 30 164 96 250 146 l158 92 196 -96
c109 -52 200 -95 204 -95 12 0 62 78 57 87 -3 4 -78 44 -166 88 -89 44 -161
82 -161 85 0 3 72 44 159 93 212 118 197 101 160 165 -17 28 -34 52 -37 52 -4
0 -83 -47 -177 -104 -93 -58 -171 -103 -172 -102 -1 1 3 88 10 194 l13 192
-56 -7 c-30 -3 -56 -7 -57 -7 -1 -1 -9 -100 -17 -221 -8 -120 -19 -221 -23
-225 -4 -4 -117 -71 -250 -148 l-243 -140 0 292 0 293 171 114 c94 63 176 117
182 121 11 7 -17 93 -33 103 -5 3 -77 -39 -159 -95 -83 -55 -153 -100 -156
-100 -3 0 -5 92 -5 205 l0 205 -66 0 -66 0 7 -205z"/>
<path d="M4163 7954 c-156 -146 -283 -269 -283 -272 0 -7 556 -525 568 -530 4
-1 126 117 272 263 l265 265 -270 270 -270 269 -282 -265z"/>
<path d="M5598 7953 l-267 -268 81 -85 c45 -47 167 -171 271 -277 l190 -192
287 275 288 276 -77 72 c-164 155 -494 461 -500 464 -3 1 -126 -118 -273 -265z"/>
<path d="M4892 7241 c-144 -148 -262 -272 -262 -275 0 -9 523 -581 531 -581 8
0 521 554 535 576 6 10 -521 549 -536 549 -4 0 -124 -121 -268 -269z"/>
<path d="M6781 5113 c-27 -98 -72 -107 -216 -43 -122 55 -186 70 -297 70 -161
0 -263 -38 -371 -140 -162 -151 -201 -375 -99 -564 68 -126 185 -217 477 -368
205 -106 256 -139 309 -198 51 -56 69 -103 69 -175 0 -75 -25 -127 -88 -183
-62 -54 -118 -72 -227 -72 -109 0 -185 24 -280 87 -126 83 -223 225 -265 386
-13 51 -22 67 -35 67 -17 0 -18 -21 -18 -320 0 -310 1 -320 19 -320 11 0 22 9
26 20 3 11 23 33 43 50 52 42 99 40 247 -12 111 -38 130 -42 245 -46 142 -5
210 8 317 59 73 35 177 127 222 198 120 187 98 426 -56 591 -74 81 -181 150
-423 275 -221 114 -290 160 -335 225 -25 36 -30 54 -33 114 -3 85 18 131 86
183 58 44 109 56 218 51 82 -3 100 -8 169 -42 106 -52 189 -136 244 -246 22
-45 41 -87 41 -94 0 -6 5 -28 11 -48 7 -29 15 -38 31 -38 21 0 21 2 15 167 -4
91 -7 219 -7 285 0 97 -3 118 -15 118 -8 0 -19 -16 -24 -37z"/>
<path d="M8785 5109 c-24 -52 -59 -79 -103 -79 -20 0 -106 24 -191 52 l-156
53 -210 -1 c-200 0 -214 -1 -298 -27 -424 -131 -691 -508 -664 -936 22 -343
216 -608 551 -752 133 -57 182 -64 431 -64 212 1 239 3 345 27 113 26 268 76
323 104 l27 15 0 227 c0 196 2 232 18 261 25 49 60 71 125 78 47 5 57 9 57 24
0 18 -17 19 -415 19 -408 0 -415 0 -415 -20 0 -18 7 -20 55 -20 65 0 126 -27
152 -67 16 -24 18 -55 18 -272 l0 -245 -60 -19 c-77 -25 -266 -34 -344 -17
-121 26 -235 104 -296 201 -133 209 -164 668 -69 996 52 180 141 294 280 360
72 34 86 37 188 41 133 5 198 -7 295 -53 161 -77 278 -207 351 -387 17 -41 29
-58 42 -58 17 0 18 17 18 300 0 285 -1 300 -18 300 -12 0 -25 -14 -37 -41z"/>
<path d="M3760 5091 c0 -15 9 -19 50 -23 61 -6 101 -33 164 -110 l47 -56 -3
-664 c-3 -650 -3 -664 -24 -708 -12 -25 -30 -53 -42 -63 -30 -27 -90 -46 -144
-47 -41 0 -48 -3 -48 -20 0 -20 7 -20 300 -20 293 0 300 0 300 20 0 17 -7 20
-50 20 -83 0 -151 38 -188 105 -15 27 -17 95 -20 650 -3 616 -3 620 17 600 11
-11 274 -337 586 -725 333 -414 574 -706 586 -708 18 -3 19 18 21 800 3 782 4
804 23 837 29 49 63 70 133 84 48 9 62 16 62 29 0 17 -19 18 -280 18 -273 0
-280 0 -280 -20 0 -17 7 -20 48 -20 98 -1 172 -60 191 -152 8 -35 10 -198 9
-471 l-3 -417 -426 537 -426 538 -301 3 c-290 2 -302 2 -302 -17z"/>
</g>
</svg>
